Coordinates
version=1
nRows=10
nColumns=22
inDegrees=yes

Units are S.I. units (second, meters, Newtons, ...)
If the header above contains a line with 'inDegrees', this indicates whether rotational values are in degrees (yes) or radians (no).

endheader
time	pelvis_tilt	pelvis_list	pelvis_rotation	pelvis_tx	pelvis_ty	pelvis_tz	hip_flexion_r	hip_adduction_r	hip_rotation_r	knee_angle_r	ankle_angle_r	subtalar_angle_r	hip_flexion_l	hip_adduction_l	hip_rotation_l	knee_angle_l	ankle_angle_l	subtalar_angle_l	lumbar_extension	lumbar_bending	lumbar_rotation
      0.01000000	      2.29009604	      4.38681476	    171.95616647	      0.10749327	      1.01951226	      1.01462749	      1.59573657	      3.70787112	     -1.59682249	    -10.33159634	      8.13509519	     -1.02764428	     -0.65044643	     -7.19552248	    -18.34099042	     -8.90686083	     10.95419256	     -1.37263526	     -2.71228620	      0.71953900	     -2.89234148
      0.02000000	      2.28988428	      4.38643502	    171.95840927	      0.10742548	      1.01950420	      1.01462448	      1.59362028	      3.70764802	     -1.59471236	    -10.33590935	      8.13651144	     -1.02849196	     -0.65247493	     -7.19541005	    -18.34018639	     -8.91050296	     10.95547560	     -1.37606696	     -2.70827593	      0.72192036	     -2.89093175
      0.03000000	      2.28806178	      4.39089831	    171.95821668	      0.10738735	      1.01948841	      1.01461267	      1.59900480	      3.71316615	     -1.58398320	    -10.35724456	      8.15730053	     -1.03732456	     -0.64973824	     -7.20229967	    -18.32893251	     -8.92722903	     10.97370810	     -1.40742806	     -2.71507889	      0.72784685	     -2.88691621
      0.04000000	      2.28811054	      4.39009840	    171.96191828	      0.10729863	      1.01947672	      1.01460960	      1.59582691	      3.71244791	     -1.58359630	    -10.36095691	      8.15784445	     -1.03786999	     -0.65228496	     -7.20177932	    -18.32943048	     -8.92963894	     10.97439603	     -1.40953500	     -2.70934823	      0.73033661	     -2.88608414
      0.05000000	      2.28763991	      4.38987056	    171.96498998	      0.10720858	      1.01946457	      1.01460404	      1.59284626	      3.71201588	     -1.58318888	    -10.36635630	      8.15961318	     -1.03877052	     -0.65515910	     -7.20196519	    -18.32888699	     -8.93338956	     10.97612926	     -1.41226144	     -2.70454674	      0.73230771	     -2.88583875
      0.06000000	      2.28653333	      4.38985618	    171.96801682	      0.10711882	      1.01945185	      1.01460038	      1.58949459	      3.71205452	     -1.58259277	    -10.37307409	      8.16206146	     -1.03979068	     -0.65808883	     -7.20210389	    -18.32769912	     -8.93810518	     10.97844361	     -1.41482641	     -2.70044631	      0.73405159	     -2.88582572
      0.07000000	      2.27743509	      4.39398591	    171.97309490	      0.10706712	      1.01944333	      1.01459522	      1.58868981	      3.71525738	     -1.58626277	    -10.39898010	      8.18872023	     -1.04873714	     -0.66077678	     -7.20829559	    -18.31767310	     -8.95835119	     11.00226713	     -1.43469670	     -2.71470081	      0.73771884	     -2.89199997
      0.08000000	      2.27702093	      4.39371942	    171.97657855	      0.10697418	      1.01943293	      1.01459718	      1.58444781	      3.71425896	     -1.58628138	    -10.40259293	      8.18945533	     -1.04923092	     -0.66391911	     -7.20804666	    -18.31772269	     -8.96138965	     11.00313296	     -1.43592983	     -2.70883306	      0.73922971	     -2.89127215
      0.09000000	      2.27565986	      4.39381158	    171.97934338	      0.10688498	      1.01942394	      1.01459339	      1.57985340	      3.71358063	     -1.58652860	    -10.40702022	      8.19099949	     -1.04991414	     -0.66761411	     -7.20846305	    -18.31727905	     -8.96585362	     11.00481689	     -1.43740108	     -2.70325366	      0.73953313	     -2.89125767
      0.10000000	      2.27359908	      4.39397094	    171.98203670	      0.10679783	      1.01941879	      1.01459181	      1.57474120	      3.71253576	     -1.58687599	    -10.41201849	      8.19330592	     -1.05070490	     -0.67145184	     -7.20916970	    -18.31664928	     -8.97144775	     11.00729601	     -1.43897147	     -2.69826399	      0.73950842	     -2.89151901
